<svg width="60" height="60" viewBox="0 0 60 60" fill="none" xmlns="http://www.w3.org/2000/svg">
<path d="M39.6416 22.3529C39.6416 19.6961 35.1285 17.451 29.785 17.451C24.4414 17.451 19.9283 19.6961 19.9283 22.3529V24.8039C19.9283 27.4608 24.4414 29.7059 29.785 29.7059C35.1285 29.7059 39.6416 27.4608 39.6416 24.8039V22.3529ZM29.785 38.2843C24.4414 38.2843 19.9283 36.0392 19.9283 33.3824V37.0588C19.9283 39.7157 24.4414 41.9608 29.785 41.9608C35.1285 41.9608 39.6416 39.7157 39.6416 37.0588V33.3824C39.6416 36.0392 35.1285 38.2843 29.785 38.2843Z" fill="white"/>
<path d="M39.6416 27.2549C39.6416 29.9117 35.1285 32.1568 29.785 32.1568C24.4414 32.1568 19.9283 29.9117 19.9283 27.2549V30.9314C19.9283 33.5882 24.4414 35.8333 29.785 35.8333C35.1285 35.8333 39.6416 33.5882 39.6416 30.9314V27.2549Z" fill="white"/>
</svg>
