<svg width="60" height="60" viewBox="0 0 60 60" fill="none" xmlns="http://www.w3.org/2000/svg">
<path d="M37.1774 19.4118H41.6129M39.3951 17.2059V21.6176V17.2059Z" stroke="white" stroke-width="2" stroke-linecap="round" stroke-linejoin="round"/>
<path d="M16.4785 37.0975C16.4785 38.2554 16.9831 39.2949 17.7722 40.0186V41.7028C17.7722 42.7949 18.639 43.6765 19.7127 43.6765C20.7865 43.6765 21.6532 42.7949 21.6532 41.7028V41.0449H32.0027V41.7028C32.0027 42.7817 32.8695 43.6765 33.9432 43.6765C35.0041 43.6765 35.8838 42.7949 35.8838 41.7028V40.0186C36.6729 39.2949 37.1774 38.2554 37.1774 37.0975V23.9396C37.1774 19.3343 32.5461 18.6765 26.828 18.6765C21.1099 18.6765 16.4785 19.3343 16.4785 23.9396V37.0975ZM21.0064 38.4133C19.9326 38.4133 19.0659 37.5317 19.0659 36.4396C19.0659 35.3475 19.9326 34.4659 21.0064 34.4659C22.0802 34.4659 22.9469 35.3475 22.9469 36.4396C22.9469 37.5317 22.0802 38.4133 21.0064 38.4133ZM32.6496 38.4133C31.5758 38.4133 30.709 37.5317 30.709 36.4396C30.709 35.3475 31.5758 34.4659 32.6496 34.4659C33.7233 34.4659 34.5901 35.3475 34.5901 36.4396C34.5901 37.5317 33.7233 38.4133 32.6496 38.4133ZM34.5901 30.5186H19.0659V23.9396H34.5901V30.5186Z" fill="white"/>
</svg>
