<svg width="60" height="60" viewBox="0 0 60 60" fill="none" xmlns="http://www.w3.org/2000/svg">
<mask id="mask0_33_62" style="mask-type:alpha" maskUnits="userSpaceOnUse" x="15" y="16" width="28" height="27">
<path d="M26.7047 27.2549C27.271 27.2549 27.8317 27.1439 28.3549 26.9284C28.8781 26.7128 29.3535 26.3969 29.7539 25.9986C30.1544 25.6003 30.472 25.1275 30.6887 24.6071C30.9054 24.0867 31.017 23.5289 31.017 22.9657C31.017 22.4024 30.9054 21.8446 30.6887 21.3243C30.472 20.8039 30.1544 20.331 29.7539 19.9327C29.3535 19.5344 28.8781 19.2185 28.3549 19.0029C27.8317 18.7874 27.271 18.6765 26.7047 18.6765C25.561 18.6765 24.4642 19.1284 23.6555 19.9327C22.8468 20.7371 22.3924 21.8281 22.3924 22.9657C22.3924 24.1032 22.8468 25.1942 23.6555 25.9986C24.4642 26.803 25.561 27.2549 26.7047 27.2549V27.2549ZM17.4641 40V40.7353H35.9453V40C35.9453 37.2549 35.9453 35.8823 35.4081 34.8333C34.9356 33.911 34.1817 33.1611 33.2544 32.6912C32.1998 32.1568 30.8198 32.1568 28.06 32.1568H25.3494C22.5896 32.1568 21.2096 32.1568 20.155 32.6912C19.2277 33.1611 18.4738 33.911 18.0013 34.8333C17.4641 35.8823 17.4641 37.2549 17.4641 40Z" fill="#555555" stroke="white" stroke-width="4" stroke-linecap="round" stroke-linejoin="round"/>
<path fill-rule="evenodd" clip-rule="evenodd" d="M38.4095 22.9657V30.3186V22.9657ZM34.7133 26.6422H42.1057H34.7133Z" fill="#555555"/>
<path d="M37.1774 19.4118H41.6129M39.3951 17.2059V21.6176V17.2059Z" stroke="#072A2E" stroke-width="2" stroke-linecap="round" stroke-linejoin="round"/>
</mask>
<g mask="url(#mask0_33_62)">
<path opacity="0.5" d="M15 15H44.5699V44.4118H15V15Z" fill="white"/>
</g>
</svg>
